# xmcd
#
# Track frame offsets:
#	150
#	23314
#	41504
#	65111
#	83094
#	100027
#	122174
#	148589
#	169938
#
# Disc length: 2596 seconds
#
# Revision: 0
# Processed by: cddbd v1.5.2PL0 Copyright (c) Steve Scherf et al.
# Submitted via: audiograbber 1.83.01
#
DISCID=6f0a2209
DTITLE=Golden Earring - Complete Studio Recordings [CD 18) - The Hole [remaster
DTITLE=ed 2017]
DYEAR=1986
DGENRE=Rock
TTITLE0=They Dance
TTITLE1=Quiet Eyes
TTITLE2=Save The Best For Later
TTITLE3=Have A Heart
TTITLE4=Love In Motion
TTITLE5=Jane Jane
TTITLE6=Jump and Run
TTITLE7=Why Do I
TTITLE8=A Shout In The Dark
EXTD=
EXTT0=
EXTT1=
EXTT2=
EXTT3=
EXTT4=
EXTT5=
EXTT6=
EXTT7=
EXTT8=
PLAYORDER=
